<svg xmlns="http://www.w3.org/2000/svg" width="1200" height="460" viewBox="0 0 1200 460" role="img" aria-labelledby="title desc">
  <title id="title">Assalamu Alaikum, I am Abdur Rahman</title>
  <desc id="desc">Professional profile header for Abdur Rahman, AI and Software Engineer</desc>
  <defs>
    <pattern id="grid" width="36" height="36" patternUnits="userSpaceOnUse"><path d="M36 0H0V36" fill="none" stroke="#65ffb4" stroke-opacity=".035"/></pattern>
    <radialGradient id="glow"><stop stop-color="#65ffb4" stop-opacity=".18"/><stop offset="1" stop-color="#071014" stop-opacity="0"/></radialGradient>
    <linearGradient id="accent" x1="0" y1="0" x2="1" y2="1"><stop stop-color="#65ffb4"/><stop offset="1" stop-color="#7bdfff"/></linearGradient>
    <filter id="soft"><feGaussianBlur stdDeviation="8"/></filter>
  </defs>
  <rect width="1200" height="460" rx="18" fill="#071014"/>
  <rect width="1200" height="460" rx="18" fill="url(#grid)"/>
  <ellipse cx="1000" cy="220" rx="320" ry="300" fill="url(#glow)"/>
  <path d="M35 85V35H85M1115 35H1165V85M35 375V425H85M1115 425H1165V375" fill="none" stroke="#65ffb4" stroke-opacity=".55" stroke-width="2"/>
  <text x="70" y="82" fill="#88a0aa" font-family="Consolas,monospace" font-size="13" letter-spacing="3">WELCOME TO MY DIGITAL SPACE</text>
  <text x="70" y="155" fill="#65ffb4" font-family="Segoe UI,Arial,sans-serif" font-size="30" font-weight="500">Assalamu Alaikum,</text>
  <text x="67" y="240" fill="#f3f8f7" font-family="Segoe UI,Arial,sans-serif" font-size="70" font-weight="800" letter-spacing="-2">I'm Abdur Rahman</text>
  <rect x="70" y="270" width="92" height="3" rx="2" fill="url(#accent)"/>
  <text x="70" y="320" fill="#d4e0e2" font-family="Segoe UI,Arial,sans-serif" font-size="25" font-weight="600">AI &amp; Software Engineer</text>
  <text x="70" y="356" fill="#8fa3ab" font-family="Segoe UI,Arial,sans-serif" font-size="17">Software Development  •  Intelligent Automation  •  Full-Stack Systems</text>
  <text x="70" y="407" fill="#65ffb4" font-family="Consolas,monospace" font-size="12" letter-spacing="2">@ABDURRAHMAN422  //  BUILDING USEFUL INTELLIGENT SOFTWARE</text>
  <g transform="translate(1000 218)" fill="none" stroke-linecap="round" stroke-linejoin="round">
    <circle r="142" stroke="#65ffb4" stroke-opacity=".1"/>
    <circle r="116" stroke="#65ffb4" stroke-opacity=".32" stroke-dasharray="3 10"/>
    <ellipse rx="135" ry="52" transform="rotate(-24)" stroke="#7bdfff" stroke-opacity=".23"/>
    <ellipse rx="135" ry="52" transform="rotate(24)" stroke="#65ffb4" stroke-opacity=".23"/>
    <path d="M0-69L60-35V35L0 69L-60 35V-35Z M0-69V0L60 35M0 0L-60 35M0 0L60-35M0 0L-60-35M0 0V69" fill="#65ffb4" fill-opacity=".035" stroke="url(#accent)" stroke-width="2"/>
    <path d="M-103-64L-60-35M-116 8L-60 4M-89 76L-43 44M97-70L56-39M119 3L60 2M91 78L43 44" stroke="#65ffb4" stroke-opacity=".52"/>
    <g fill="#071014" stroke="url(#accent)" stroke-width="2">
      <circle cx="-103" cy="-64" r="7"/><circle cx="-116" cy="8" r="8"/><circle cx="-89" cy="76" r="7"/>
      <circle cx="97" cy="-70" r="7"/><circle cx="119" cy="3" r="8"/><circle cx="91" cy="78" r="7"/>
      <circle cx="0" cy="0" r="18"/>
    </g>
    <circle r="7" fill="#65ffb4" stroke="none" filter="url(#soft)"/>
    <path d="M-29-12L-14-24M14-24L29-12M-29 12L-14 24M14 24L29 12" stroke="#7bdfff" stroke-opacity=".7"/>
  </g>
  <path d="M690 397H1128" stroke="#65ffb4" stroke-opacity=".16"/>
</svg>
